# xmcd CD database file generated by LOLA_Freedb v0.9beta0
# 
# Track frame offsets:
#      150
#      23747
#      51597
#      72870
#      91117
#      114027
#      139752
#      158250
#      184235
#      203352
#      218537
#      269380
#      288937
#      318380
# 
# Disc length: 4555 seconds
# 
# Revision: 3 
# Processed by: cddbd v1.5.2PL0 Copyright (c) Steve Scherf et al.
# Submitted via: LOLA_Freedb v0.9beta0
# 
DISCID=b611c90e
DTITLE=Various Artist - That's Music - Today's Blues
DYEAR=2000
DGENRE=Blues
TTITLE0=The Jeff Healy Band - Hoochie Coochie Man [1989]
TTITLE1=Gary Moore - Still Got The Blues (For You) [1990]
TTITLE2=Pat Benatar - True Love [1991]
TTITLE3=John Hammond - You Don't Love Me [1992]
TTITLE4=Coco Montoyo - Someday After A While [1994]
TTITLE5=Buddy Guy - She's Nineteen Years Old [1993]
TTITLE6=Johnny Winter - You Lie Too Much [1991]
TTITLE7=Robben Ford and The Blue Line - I Just Want To Make Love To You[1995]
TTITLE8=Jon Mayall - Wake Up Call [1993]
TTITLE9=Roy Rogers - Build For Comfort [1996]
TTITLE10=Duke Robillard Band - Dyin' Flu [1994]
TTITLE11=The Robert Cray Band - Right Next Door (Because Of Me) [1986]
TTITLE12=Charles Brown - These Blues [1994]
TTITLE13=Albert Collins - T-Bone Shuffle {Live} [1995]
EXTD=YEAR: 2000 ID3G: 0
EXTT0=
EXTT1=
EXTT2=
EXTT3=
EXTT4=
EXTT5=
EXTT6=
EXTT7=
EXTT8=
EXTT9=
EXTT10=
EXTT11=
EXTT12=
EXTT13=
PLAYORDER=
